<svg xmlns="http://www.w3.org/2000/svg" width="512" height="453" viewBox="0 0 512 453">
  <defs>
    <style>
      .cls-1 {
        fill: #797979;
        fill-rule: evenodd;
      }
    </style>
  </defs>
  <path id="China.svg" class="cls-1" d="M411.435,2.523c6.721,1.43,6.708,3.443,12.466,1.039,14.938,9.08,15.621,32.864,30.124,41.542,15.208,5.334,22.049,1.546,28.047,15.578,13.491-3.517,15.346-13.057,27.008-16.617l2.077,5.193c-3.683,7.6-2.752,24.519-4.155,35.311H496.615l-4.156,7.27c1.687,6.711,7.366,14.921,6.233,20.771l-4.155,5.192c-3.362-.058-2.491-1.682-5.194,1.039-3.406,7.106-3.566,11.635-12.465,13.5,0.979,4.419,1.2,3.477,3.116,6.232l-1.039,2.077c-6.433-.046-7.041-0.792-10.387-3.116-11.144,15.237-19.792,27.128-36.357,39.465h-4.155l1.038-3.116q1.039-6.23,2.078-12.462l-8.31-3.116c-11.568,11.386-19.259,21.925-30.124,29.08l1.038,7.269c1.657,4.135,2.709,5.083,6.233,7.27l2.077-3.115c4.008,2.7,4.994,6.1,7.272,10.385,8.57-.568,9.26-3.931,12.465-9.347,6.994,1.327,6.281,3.518,9.349,8.309-6.553,7.426-14.268,12.772-17.659,28.041,8.168,3.571,27.134,24.855,31.163,32.195l-10.388-1.039q0.52,1.558,1.039,3.116c8.488,0.167,11.538,3.972,9.349,9.347-3.606,1.667-8.639,5.78-10.388,9.347,9.431,0.39,8.5-.827,16.621,1.039v1.038c-1.674,2.365-1.881,1.836-3.117,5.193l5.194-1.039c-3.46,5.281-2.187,12.428-4.155,15.579l-4.155-2.078c0.153,13.78-6.8,15.621-11.426,24.926q1.557,6.75,3.116,13.5c-13.194,4.684-18.173,25.9-28.047,35.311-2.788,2.659-21.717,9.15-27.008,11.424-1.6-4.783-1.23-3.9-6.233-5.193,0.832,4.33,1.369,3.916,1.039,7.27-10.971,5.118-27.692,10.485-35.318,19.733,2.191,3.35,3.184,3.893,3.116,7.269h-1.038c-2.8-1.661-1.431-.352-3.117-3.115-3.611-5.368-.7-9.3-5.194-13.5-6.016,3.651-20.6,3.269-28.046-2.078-0.972-6.126-1.054-8.415-5.194-11.424-5.112.622-12.325-6.079-15.582-5.192s-7.423,9.173-12.465,10.385c-8.588,2.065-19.629,1.065-27.008,2.077q1.038,7.269,2.078,14.54h-4.156l-2.077-7.27c-4.981,2.939-5.862,4.582-11.427,2.077-1.542-5.683-3.652-5.237-8.31-7.27l3.117-10.385c-9.344-2.659-5.2-11.621-10.388-12.463H206.8q-0.521-4.153-1.039-8.308c8.825-8.7,13.773-15.949,13.5-34.273-5.517-3.074-6.355-5.638-10.388-12.462-6.1,1.364-7.278,1.565-13.5,0,1.333-3.666,2.856-3.457,0-6.232-0.5,3.719,1.564,1.413-2.077,4.155q-0.52-1.559-1.039-3.116c2.2-1.948.666-.816,2.077-4.154-3.862,1.987-4.192,3.151-7.271,1.038l2.078-3.115,5.193,1.038c-6.728-3.6-10,5.847-15.581-2.077-9.049,2.817-20.915,15.824-27.008,15.578-7.441,1.278-11.221-5.165-18.7-7.269L105,322.4c-8.728-.861-9.444-3.957-15.581-4.155C80.9,306.07,60.894,288.8,48.9,279.817l-5.194,3.116c-5.692-15.026-17.572-14.859-18.7-34.273,4.035,2.79,4.205,2.9,10.388,2.077v-6.231c-3.892-7.807-6.394-23.458-6.233-33.234C4.887,204.7,12.4,165.1,1.121,165.576v-9.347l13.5-9.347c17.339,4.117,30.26-4.123,51.939-7.27,1.849-14.379,9.525-20.4,6.233-35.311l20.775,2.077C93.329,95.916,97.128,93.4,100.843,83.53c4.411,3,12.623,7,15.582,5.193l7.271-3.116q0.519-6.231,1.039-12.463c7.8-1.65,7.6-3.127,11.426-8.308l3.117,1.038c5.644,14.57,14.971,13.885,21.814,24.925,0.074,5.063-3.061,21.605,0,25.964,5.587,6.652,18.766,5.372,25.969,10.385,8.948,6.228,11.192,20.926,20.775,25.964l42.59,5.193c7.286,2.64,18.151,10.58,28.047,11.424l21.814-11.424,21.814-4.154,16.62-17.656c-2.9-3.868-4.358-3.835-5.193-10.385l4.155-5.193c22.382,9.229,33.124-19.1,46.744-25.964,4.691-2.363,9.959-.408,14.543-3.116V87.684l-13.5-11.424c-11.12.39-16.715,7.165-22.853,5.193,0.353-9.8,4.366-13.648,8.31-19.732,7.736-1.274,10.85-2.73,15.582-6.231,2.154-8.565,6.45-20.91,8.31-30.118a7.24,7.24,0,0,0-4.155-8.308C389.486,6.82,404.662,5.643,411.435,2.523Zm6.233,1.039h0ZM148.627,80.415h0ZM493.5,91.839l1.039,3.116H493.5V91.839Zm-402,12.462,1.039,2.077Zm250.344,16.617h0Zm-318.9,27h0ZM429.094,162.46l1.039,2.077ZM7.354,168.692l1.039,2.077H6.315ZM6.315,179.077l1.039,2.077ZM28.129,249.7h0Zm419.663,38.426h0ZM69.68,300.588l1.039,2.077Zm105.955,12.463,4.155,3.115c-4.283-.042-5.621,1.129-4.155-1.038v-2.077Zm-4.155,3.115h0Zm-77.908,2.077,1.039,2.078Zm68.559,1.039h3.116l-2.078,2.077Zm-48.823,2.077h0Zm92.451,4.154c3.976,1.372,2.16,0,4.155,3.116l-5.194-1.039Q205.239,326.552,205.759,325.513ZM216.147,335.9l2.077,2.077-1.039,1.039-2.077-1.039Q215.627,336.938,216.147,335.9Zm244.111,14.54c9.052,6.254.242,27.6-1.039,37.388l-4.155-4.155C442.975,375.368,455,357.212,460.258,350.439Zm-165.165,42.58,1.039,2.078Zm18.7,15.579h2.078c-1.447,2-.106.621-2.078,2.077V408.6Zm-71.675,4.154q0.519,1.038,1.039,2.077Q242.635,413.791,242.116,412.752Zm99.722,2.077q0.519,1.038,1.039,2.077Q342.357,415.868,341.838,414.829Zm3.116,13.5c3.144,2.006,1.681.212,3.116,4.154q-1.557,6.75-3.116,13.5c-5.278,1.1-5.314,2.287-8.31,5.192l-10.388-3.115q-0.519-4.674-1.039-9.347l7.272-6.232Z"/>
</svg>
