<svg xmlns="http://www.w3.org/2000/svg" width="1258" height="1113" viewBox="0 0 1258 1113">
  <defs>
    <style>
      .cls-1 {
        fill: #797979;
        fill-rule: evenodd;
      }
    </style>
  </defs>
  <path id="SEA2_1" data-name="SEA2 1" class="cls-1" d="M1250.59,974.936q-3.4,9.372-6.82,18.745,1.71,4.258,3.41,8.519-2.55,34.08-5.11,68.16c-6.32-3.77-8.55-10.45-13.64-15.33-5.45-5.24-13-9.73-18.75-14.49-11.08.21-15.75,4.49-22.15,6.82q-14.91-.435-29.83-0.85v-0.86q4.68-13.62,9.37-27.26l14.49-8.52c-0.64-55.778-36.95-70.539-80.96-83.5-12.03-3.543-26.61-13.206-40.05-11.077-2.97,2.2-4.12,3.283-5.12,7.669-12.32-.071-15.08,4.63-24.71,5.964-0.28-1.42-.57-2.84-0.85-4.26-1.41-3.114-2.04-3.673-5.12-5.112l-19.6-.853c-3.85-14.654-23.968-8.5-38.346-12.78-6.848-2.038-8.737-10.079-18.748-11.928-25.182-4.65-35.293,10.353-51.985,11.928,4.267-7.827,3.5-18.569,0-27.265,6.053-7.113,24.131-14.82,33.236-15.336,10.623,25.539,59.611,8.211,64.768-11.076,5.5-20.579-24.016-31.356-25.566-46.01l20.453-7.668c1.046,4.649,2.385,5.046,5.113,7.668,12.255-.213,19.425-5.377,33.235-6.816,8.96,12.284,23.74,11.566,40.06,14.484,0.32,11.551-2.79,36.378,2.55,44.306,3.3,4.894,11.9,5.542,14.49,11.076,4.36,9.326,1.16,13.612,10.23,17.893,6.25,2.387,10.08,1.468,14.48-1.7,4.3-17.161,20.94-34.044,41.76-34.081a32.276,32.276,0,0,1,1.71-11.929c0.56-.284,1.13-0.568,1.7-0.852,38.22,0.655,65.57,26.8,99.71,32.377Q1252.29,922.958,1250.59,974.936Zm-298.273-127.8,2.556-5.964,5.966-2.556,5.965,0.852-0.852,12.781Zm-40.054-78.386c2.774,5.481,7.041,3.9,11.079,7.668v2.556q-0.427,2.13-.853,4.261c-4.456-2.869-7.764-4.73-14.487-3.409l-5.114,5.113c0.318,13.485,8.656,19.252,11.931,32.377H902.036c-7.308,10.28.593,12.36,1.705,24.708l-15.34,3.408c-7.679-6.739-17.344-12.576-25.567-18.744,7.35-8.024,11.838-18.479,11.079-32.377,25.709-6.307,13.22-26.132,11.079-45.157-0.466-4.136,5.127-18.964,7.67-23.857,2.875-5.533,18.919-4.525,23.862-16.189l2.556,0.852,5.114,5.113c-4.163,8.343-5.942,17.865,1.7,23-6.966,11.239-4.622,14.085-14.487,23.857ZM852.608,595.785h-0.852c-12.871-2.207-12.579-14.45-17.045-24.709-4.806,1.548-3.9,6.694-3.408,12.781,4.6,12.215,2.379,27.707-4.261,35.785-14.608-9.829-33.442-12.689-41.759-28.969-6.519-12.761,4.238-28.61-5.965-39.193l-15.34,3.408c-4.765-1.2-5.37-8.1-13.636-5.112-18.964,9.027-11.241,23.3-8.522,42.6l-11.079,2.556v-1.7c-2.854-6.952-.362-21.458.853-27.265q-0.426-9.371-.853-18.744c2.913-9.325,20.316-20.562,27.271-27.265-0.226-16.61-15.065-20.647-21.3-33.229,1.765-4.838,3.526-6.852,2.557-12.781-4.311-5.642-10.03-5.415-18.749-6.816,1.016-22.08-.283-55.343-24.714-50.269,0.169-28.067-19.83-22.481-25.567-40.9l6.818-5.113q-1.278-9.37-2.557-18.744l8.523-7.668q-0.426-3.408-.853-6.817l-6.817-5.112-4.261.852q-1.279,4.26-2.557,8.521h-0.852c-2.589-5.052-6.115-3.2-9.375-6.817-3.021-3.349-15.22-45.844-15.339-51.973h3.408c3.693,5.044,8.984,11.263,14.488,14.484-0.311-28.284-8.918-51.049-4.261-75.83l2.557-2.556c18.642,0.057,27.876,4.643,44.315,2.556-2.506,17.177,3.16,27.914,11.078,38.341-0.591,9.185-5.5,29.319-11.078,34.933-3.115,3.137-7.065,1.629-8.522,6.816-1.728,6.148-.836,24.143,1.7,28.117l9.374,7.668q1.278,8.946,2.557,17.893l5.113,4.26,6.818-.852c5.072-2.186,6.3-5.146,5.965-12.78,19.579,8.838,20.9,16.193,45.168,5.964,7.9,3.384,9.371,8.661,14.487,14.484-0.537,8.3-7.158,21.275-1.7,25.561,7.039,4.631,16.037,7.261,25.566,9.372l0.852,14.485q4.688,10.649,9.375,21.3v12.781l20.453,35.785c3.621,12.154-3.283,26.918.852,40.9l13.636,18.745q-0.428,9.371-.853,18.744C857.31,574.939,858.615,586.216,852.608,595.785ZM654.9,70.086c-3.451,15.845-11.683,26-12.784,44.305C604.555,86.645,609.558,47.574,637,13c7.455-.039,12.576,1.567,17.044,4.26,0.132,5.621-1.36,35.3-.852,36.637C654.73,57.962,656.414,63.109,654.9,70.086ZM632.737,490.134c9.055-14.866,10.944-32.2,22.158-44.305,5.1,5.138,7.742,16.5,11.931,22.152-8.13,5.988-23.624,7.839-28.976,16.189-3.127,4.878,1.588,8.162,0,12.78-1.855,5.4-28.623,26.072-35.793,28.117v-4.26C611.232,510.243,625.476,502.054,632.737,490.134Zm-21.3,93.723,16.192-2.556c-1.925,3.815-3.662,8.123-2.557,12.78,9.941,3.033,14.948,12.455,23.01,17.04,3.98,2.264,6.163-2.034,8.522.853,3.812,6.922.66,14.41-.852,22.152l-14.488,5.964c-0.8,7.592,3.612,13.568.852,18.745l-18.748,11.076c-12.691,18.3,6.64,33.211,9.374,44.306l-1.7,9.372,26.418,36.637-4.261,5.964c-7.507-.643-8.363-3.861-13.635-5.112-32.013-7.6-17.864,36.631-24.714,54.529-5.249,8.609-19.59,11.273-23.01,20.449-2.785,7.472,2.575,14.167,1.7,19.6l-5.965,13.632c-3.179,15.593.8,35.156-9.375,43.453h-0.852c-1.123-6.4-2.321-8.41-5.965-11.928-13.5.183-20.942,8.991-34.089,11.928q-0.852-9.8-1.7-19.6c-11.724-5.766-12.419-.668-23.862,1.7-0.055-5.066-.18-5.81-3.409-7.668l-13.635-5.113c-9.846,13.849-8.4,4.45-22.158,7.669-3.583.838-4.152,4.217-9.374,5.112v-1.7q-0.852-8.094-1.7-16.189l-1.7-.852c-7.714,2.442-14.9,5.516-23.01,6.816-0.105-3.385.764-1.761-.852-4.26-4.827,1.362-8.853.259-13.635-.852L409.457,850.54q0.426-7.667.853-15.336v-0.852c-2.119-3.353-7.619-3.11-11.931-4.26-3.213-19.279-18.793-49.66-14.488-70.718,2.521-12.332,9.535-18.367,13.635-29.821l4.261,4.26c8.34,2.739,13.327,4.908,22.158,1.7,2.654,6.391,8.651,6.8,15.34,4.26,5.3-11.364,8.981-31.494,19.6-37.489l30.679-5.112c10.085-3.57,30.168-34.616,30.68-48.565,4.09-.506,33.473-15.012,34.941-17.893v-9.372c22.507-1.241,26.5-34.457,35.793-49.418C602.41,572.562,604.9,578.669,611.432,583.857ZM424.675,78.239l6.024-4.015,8.032,8.029L430.7,85.264ZM402.586,81.25l4.016-2.007,1,5.018-4.016,1ZM340.428,465.425c-8.748,2.861-20.754.355-27.271,2.556-4.246,7.636-5.616,15.063-3.408,25.561-13.772,8.915-27.471,19.482-42.611,25.561-2.634-9.571-1.418-35.9-5.966-43.453-4.123-6.849-14.133-12.514-24.714-12.781l-10.226.852c-3.948-1.893-7.244-7.076-12.784-9.372,2-22-7.6-29.588-21.305-38.341-6.634-4.236-8.422-12.939-17.044-16.189-7.289-2.747-21.564,3.768-24.714-1.7V380.223q-2.983-2.556-5.966-5.112c-7.921-2.824-14.28-1.221-19.6,2.556-2.915,15.17-1.263,29.465,1.7,46.009-3.547,2.734-12.168,14.851-13.636,18.745-3.943,10.465-4.866,57.263,1.7,61.345,4.575,3.806,10.374.686,13.635-1.7l1.7,0.852c0.508,17.925,10.162,22.558,15.339,33.229,6.11,12.593-5.667,25.564,9.375,36.637,4.719,3.474,11.281,1.97,17.044,5.113,14,7.636,31.342,20.028,40.906,32.376,8.933,11.533,19.127,26.767,22.158,43.454,2.263,12.456-3.732,29.629,0,44.305,1.917,7.539,8.954,8.424,11.931,13.632q4.26,14.058,8.522,28.117c-5.4,1.691-7.493,4.413-11.079,7.668l-5.965-1.7c0.839-3.246.518-6.634-3.409-9.372L202.37,725.293c-11.41-5.314-16.123-15.959-24.714-23.857,1.961-3.48,2.572-5.559,1.7-10.224-6.557-8.616-17.044-19.474-21.305-29.821-4.656-11.3-1.627-33.752-5.966-46.009-9.23-26.078-28.415-47.079-43.463-67.31L102.661,537c-5.735-4.609-12.689-6.4-17.9-11.076l8.522-57.086c7.763-14.051,29.388-28.6,23.01-55.381q-11.5-21.3-23.01-42.6l-9.374-24.708c-7.1-11.391-22.676-15.373-17.9-39.193,1.823-9.087,8.451-13.185,11.931-21.3-3.593-29.46-43.747-46.368-47.724-64.754,4.541-12.768,8.305-32.076,15.34-44.305,10.476-1.274,15.428-7.419,23.862-10.225,21.383-7.112,44.08-9.8,50.28-30.672,6.044-20.348-12.029-15.546,5.966-39.194,32.5-1.728,66.9-4.45,89.482-16.188,25.63-.654,38.65,3.852,52.837,13.632-1.38,11.707,1.618,13.109,6.818,19.6l25.566,12.78-10.226,15.337-10.227,5.112-9.374,18.744c-4.674,5.459-13.723,7.652-15.34,16.189-6.438,33.987,39.22,82.234,60.507,96.279L336.167,288.2c32.285,40.012,39.222,79.855,39.2,147.4C364.082,444.156,354.833,460.715,340.428,465.425ZM55.789,626.458L80.5,632.422c10.5,29.965,36.685,37.939,53.69,59.642,6.028,7.693,11.594,21.008,20.453,25.561,7.25,3.725,20.02-.246,26.418,3.408,16.756,9.567,21.018,27.139,48.577,27.265-10.008,22.1,17.612,21.29,19.6,38.341-3.2,7.457-7.276,12.465-8.522,22.152,10.434,14.441,22.677,27.561,32.384,43.454l7.67,1.7c2.73-1.382,3.57-1.576,5.114-4.261,3.195-3.756,2.072-9.056,0-13.632a57.209,57.209,0,0,0,16.192-.852c3.861,7.693,20.875,43.022,19.6,48.565h-0.852l-12.783-5.112-1.7,2.556c-11.055,24.026-4.084,49.549-10.227,83.5-7.182,2.386-7.366-3.162-14.488-5.112-1.892,3.456-2.029,4.276-6.817,5.112-3.613-3.452-5.774-5.351-11.079-5.112l-0.852,2.556c1.55,4.734.918,6.6,0,11.928-16.461-12.525-25.5-33.139-38.35-49.417-6.343-8.034-20.432-8.648-26.418-17.041-11.955-16.761-24.094-33.429-34.941-50.269,1.684-9.316,1.209-19.672-3.409-27.265-8.22-13.516-24.2-23.712-32.384-37.489a189.035,189.035,0,0,1-15.34-34.933c-2.07-7.015,1.514-9.742-1.7-15.337-7.819-13.59-26.642-16.81-34.941-28.969L71.981,698.88C62.56,682.346-2.06,644.671,8.065,619.642l6.818-7.668,20.453,14.484H55.789ZM354.064,888.03h-6.818V867.581c10.521-.3,18.422,3.666,22.157,10.224l-0.852,1.7C362.078,882.118,362.094,886.952,354.064,888.03Zm451.672-46.862h1.705C805.953,842,807.253,841.946,805.736,841.168ZM677.9,787.491c2-6.754,11.231-25.985,15.34-32.377,9.541,0.006,13.444-3.573,17.044-9.373l23.862,9.373h29.828c8.183,1.669,19.639,7.3,31.532,4.26,6.153-1.573,6.2-6.672,10.226-9.372,6.306-4.228,18.365-7.1,24.714-9.373-6.171,11.973-15.044,15.975-22.157,25.561l-7.67,14.484c-20.16-5.646-93-11.452-109.083-.852-8.178,22.683-4.732,22.575,6.817,40.046,3.011,4.554,1.963,9.106,6.818,11.928a8.549,8.549,0,0,0,8.522.852c6.774-3.633,6.8-12.192,13.636-16.188,17.148,4.323,29.422-10.545,49.428-11.077,0.872,4.076,1.632,4.734,4.261,6.816-3.542,7.735-.46,11.738.852,20.449-2.386,2.956-3.08,5.028-6.817,6.816-15.576,2.672-32.645-11.581-42.611,5.964-1.967,2.179-2.309,3.454-2.557,7.669,17.639,39.246,49.419,38.952,39.2,102.243-18.047,3.573-41.1,15.795-56.246,1.7-2.483-11.31,11.244-26.523,12.783-38.342l-14.487-21.3c0.984-8.563,5.454-11.141,8.522-17.893-1.677-4.79-2.851-6.338-5.966-9.372l-17.044,2.556c-5.125,7.269-5.711,66.306-2.557,88.611l-26.418,1.7c0.033-21.017,6.506-43.937,2.556-61.346-6.014-4.3-12.331-3.107-17.9-5.112-3.174-29.061,18.825-57.776,26.419-84.351C680.863,804.828,676.309,792.892,677.9,787.491ZM844.938,888.882l4.261-6.817,15.34-1.7c5.543,0.637,12.5,5.8,15.34,9.373l0.852,6.816L868.8,906.774C859.857,906.016,845.414,895.34,844.938,888.882Zm-540.3,83.5c4.759,1.243,16.343,4.746,19.6,4.26l8.522-4.26,11.931,7.668,19.6,3.408c1.692,5.245,4.586,12.116,9.374,14.485q23.009,1.7,46.02,3.409c6.191-3.3,6.7-10.733,12.783-14.486,9.9,5.953,18.455,10.892,31.532,13.636,9.226,1.93,20.812-1.163,26.419-2.559,8.963-2.232,20.21,3.569,26.418,5.959,0.029,28.07,18.692,25.77,37.5,34.94,5.841,2.85,11.08,8.17,21.305,5.11,8.376-2.5,11.785,5.23,23.862,2.56,15.474-3.43,42.919-8.51,65.62-5.12q22.581,1.29,45.167,2.56,37.068-4.68,74.143-9.37,12.781-4.695,25.566-9.37l55.394-4.26c0.336,9.95,5.636,13.75,6.818,19.59q-1.278,7.665-2.557,15.34c-35.617,7.78-69.582,27.81-90.334,51.12q-8.522-1.275-17.045-2.56v-0.85l4.261-4.26c4.227-11.63,4.7-24.73-6.817-29.82q5.538-3.4,11.078-6.82l-138.91,5.97c-14.158,0-38.264,7.66-47.724,4.26-6.017-2.16-10.975-8.52-18.749-10.23q-26.415-2.55-52.837-5.11c-6.018-1.95-7.906-10.1-15.34-11.93q-11.93.435-23.862,0.86l-50.28-4.26q-20.451-7.68-40.906-15.34c-10.677-2.8-20.342,3.99-30.68,1.7-28.892-6.38-45.224-18.83-67.325-30.669v-0.852C292.166,990.717,295.556,976.675,304.635,972.38Zm690.292,33.23c7.183,8.68-11.273,28.11-15.339,33.23-0.569-.29-1.137-0.57-1.7-0.85q-2.13-6.825-4.261-13.64C979.827,1021.95,986.948,1011.02,994.927,1005.61Zm81.813-49.418h2.56c1.14,9.128-2.16,32.519-7.67,38.341l-12.79,3.408c1.67-11.753,2.51-29.991,10.23-36.637C1071.23,957.96,1073.12,958.077,1076.74,956.192Z"/>
</svg>
